<svg xmlns="http://www.w3.org/2000/svg" xmlns:xlink="http://www.w3.org/1999/xlink" width="475" height="105" viewBox="0 0 475 105">
  <defs>
    <linearGradient id="linear-gradient" y1="2.351" x2="1.142" y2="2.327" gradientUnits="objectBoundingBox">
      <stop offset="0" stop-color="#ff6700"/>
      <stop offset="1" stop-color="#ffba0d"/>
    </linearGradient>
    <clipPath id="clip-path">
      <path id="Path_280" data-name="Path 280" d="M18.494,6.64l.911,6.451c3.241-2.016,8.748-4.334,13.957-4.334,8.115,0,10.431,4.637,9.313,9.879-1.656,7.76-10.5,11.088-16.923,11.088H20.833L19.4,36.377h4.922c8.539,0,15.939,3.931,14.085,13.1-1.06,5.444-6.132,12.7-17.513,12.7a24.737,24.737,0,0,1-13.61-4.134L3.384,64.9c2.766,2.117,8.717,4.435,16.074,4.435,15.725,0,25.835-9.171,28.06-19.656,1.946-9.17-3.3-15.22-10.989-16.832l.043-.2c8.655-2.921,13.891-8.669,15.326-15.422C53.589,9.261,49.412,1.6,36.6,1.6A36.6,36.6,0,0,0,18.494,6.64" transform="translate(-3.384 -1.602)" fill="url(#linear-gradient)"/>
    </clipPath>
    <clipPath id="clip-path-2">
      <rect id="Rectangle_378" data-name="Rectangle 378" width="52.161" height="69.847" fill="url(#linear-gradient)"/>
    </clipPath>
  </defs>
  <g id="slide_3_t" transform="translate(-105 -210)">
    <g id="Text" transform="translate(171 222)" style="isolation: isolate">
      <path id="服務總覽" d="M65.88,64.472V52.16a6.287,6.287,0,0,0-1.728-4.32,5.8,5.8,0,0,0-4.32-1.8H42.48a5.017,5.017,0,0,0-3.816,1.728,5.316,5.316,0,0,0-1.44,3.6v12.6a5.708,5.708,0,0,0,1.584,4.32A5.267,5.267,0,0,0,42.84,69.8H59.832a6.5,6.5,0,0,0,4.248-1.512A5.083,5.083,0,0,0,65.88,64.472Zm2.592,11.16H42.264a57.714,57.714,0,0,1-6.336-.288A31.382,31.382,0,0,1,24.7,72.176V59.144H34.56V54.32H24.7V45.032H35.352v-2.52h8.856c5.256-5.184,7.56-11.664,8.352-18.936h5.976a1.575,1.575,0,0,1,1.584,1.44V35.96a1.758,1.758,0,0,1-1.8,1.728H51.552l2.16,4.824h7.56a5.3,5.3,0,0,0,3.744-1.656A5.46,5.46,0,0,0,66.6,37.328V24.44a5.547,5.547,0,0,0-1.872-3.888,6.674,6.674,0,0,0-4.392-1.728H37.656v4.752H46.08c0,7.56-4.32,14.256-10.728,18.648v-2.3H24.7V31.28H33.48V26.456H24.7V17.744h-6.48v8.712H7.488V31.28H18.216v8.64H4.824v5.112H18.216V67.064A33.448,33.448,0,0,1,14.4,62.312a92.04,92.04,0,0,0,.288-12.672H8.712C8.928,60.08,7.92,71.312,4.9,80.528h6.84c.792-3.528,1.728-8.568,2.16-11.3a32.759,32.759,0,0,0,15.7,10.152,29.051,29.051,0,0,0,7.776,1.152H66.024ZM59.616,63.32a1.778,1.778,0,0,1-1.872,1.656H45.36a1.5,1.5,0,0,1-1.512-1.584V52.232c0-.792.936-1.3,1.728-1.3H57.96a1.713,1.713,0,0,1,1.656,1.584Zm79.992-36.072v-4.68H113.256a35.261,35.261,0,0,1-2.952-4.9h-8.28c.864,1.512,2.16,3.816,2.88,4.9H76.9v4.68ZM132.984,40.28V36.608a5.639,5.639,0,0,0-1.656-4.32,6.141,6.141,0,0,0-4.032-1.3H88.776a5.445,5.445,0,0,0-3.6,1.224,5.128,5.128,0,0,0-1.656,4.032V40.5a5.436,5.436,0,0,0,1.512,3.888A5.213,5.213,0,0,0,88.776,45.9h38.232a5.9,5.9,0,0,0,4.536-1.584A5.51,5.51,0,0,0,132.984,40.28ZM137.952,73.9V56.912A7.269,7.269,0,0,0,136.3,51.8a6.162,6.162,0,0,0-4.968-1.944H85.464a7.022,7.022,0,0,0-4.752,1.584,6.009,6.009,0,0,0-1.944,4.68v24.7H85.32V56.264a1.738,1.738,0,0,1,1.656-1.728h42.48a1.8,1.8,0,0,1,1.872,1.8V73.9a1.951,1.951,0,0,1-2.088,2.16h-9.216l2.16,4.68h9a6.526,6.526,0,0,0,5.256-2.16A7.3,7.3,0,0,0,137.952,73.9Zm-13.176-6.552V64.04a5.545,5.545,0,0,0-1.368-3.888,5.811,5.811,0,0,0-4.392-1.8H97.128a5.162,5.162,0,0,0-5.184,5.184v3.888a5.239,5.239,0,0,0,5.76,5.76h20.664a6.7,6.7,0,0,0,4.9-1.656A5.719,5.719,0,0,0,124.776,67.352Zm1.656-27.792c0,1.152-.576,1.8-1.584,1.8H91.512c-1.008,0-1.368-.72-1.368-1.512V37.184a1.662,1.662,0,0,1,1.584-1.656H124.7a1.682,1.682,0,0,1,1.728,1.8Zm-7.92,27.432A1.55,1.55,0,0,1,117,68.648H99.72a1.292,1.292,0,0,1-1.44-1.44V64.4a1.584,1.584,0,0,1,1.584-1.512h16.992a1.691,1.691,0,0,1,1.656,1.728ZM194.04,60.08h-7.416a19.306,19.306,0,0,1-8.064,10.512,17.589,17.589,0,0,1-16.992-.216c-6.7-4.1-8.856-11.16-9.072-18.576-.216-8.712,2.736-17.424,11.448-20.88a17.088,17.088,0,0,1,12.384.288c4.68,1.944,7.128,5.256,9.432,9.648h7.416c-2.3-5.976-6.7-11.52-12.672-14.04a27.245,27.245,0,0,0-22.392,1.008c-9.144,4.9-12.312,14.544-12.168,24.264.072,6.84,1.944,13.1,6.336,18.144a20.935,20.935,0,0,0,13.752,7.128,28.745,28.745,0,0,0,15.912-2.232C187.776,72.248,192.168,66.128,194.04,60.08Zm45.072-19.728A16.5,16.5,0,0,0,235.8,30.2a13.77,13.77,0,0,0-10.656-4.608H205.92a6.451,6.451,0,0,0-4.608,2.016,6.752,6.752,0,0,0-1.872,4.752V77h6.552V55.112h17.784c4.968,0,8.784-1.224,12.1-4.824C238.176,47.768,239.184,44.024,239.112,40.352Zm-6.7,1.152a8.842,8.842,0,0,1-2.376,6.12,10.437,10.437,0,0,1-7.2,2.448H205.992V32.288a1.814,1.814,0,0,1,1.728-1.8h15.192a9.781,9.781,0,0,1,7.776,3.24C232.2,35.672,232.488,39.056,232.416,41.5Zm76.968,39.312v-4.9h-5.976V40.064a6.933,6.933,0,0,0-1.8-5.04,7.2,7.2,0,0,0-5.256-1.872H285.984c.216-1.224.648-3.96.792-5.256h20.592v-5.04H287.5c.216-1.152.5-3.384.72-5.184h-6.624c-.216,1.656-.5,3.96-.648,5.184h-18.72V27.9h18c-.216,1.584-.576,4.032-.72,5.256h-6.48a7.824,7.824,0,0,0-4.536,1.3,5.867,5.867,0,0,0-2.376,4.824V75.92h-5.4v4.9Zm-46.3-63.072h-6.7a126.937,126.937,0,0,1-10.8,23.616h5.544V80.816H257.4V38.48h-3.168A135.013,135.013,0,0,0,263.088,17.744Zm33.768,25.632h-24.12v-3.6a1.456,1.456,0,0,1,1.512-1.584h20.88a1.592,1.592,0,0,1,1.728,1.584Zm0,10.008h-24.12V48.272h24.12Zm0,10.872h-24.12V58.28h24.12Zm0,11.664h-24.12v-6.7h24.12Z" transform="translate(0 -12)" fill="#3e1ee6"/>
    </g>
    <g id="Group_290" data-name="Group 290" transform="translate(105.919 223)">
      <g id="Group_287" data-name="Group 287" transform="translate(2.232 1.057)">
        <g id="Group_286" data-name="Group 286" clip-path="url(#clip-path)">
          <rect id="Rectangle_377" data-name="Rectangle 377" width="50.205" height="67.733" transform="translate(0 0)" fill="url(#linear-gradient)"/>
        </g>
      </g>
      <g id="Group_289" data-name="Group 289">
        <g id="Group_288" data-name="Group 288" clip-path="url(#clip-path-2)">
          <path id="Path_281" data-name="Path 281" d="M6.841,57.7l.394-.529a24.118,24.118,0,0,0,13.216,4C31.52,61.166,36.281,54.2,37.317,49.011v0a13.063,13.063,0,0,0,.274-2.586c-.013-6.706-6.183-9.682-13.713-9.725H18.141l1.716-7.972h5.451c6.25.009,14.777-3.285,16.278-10.566a10.752,10.752,0,0,0,.249-2.235c-.067-3.862-2.26-6.766-8.917-6.847-5.014-.009-10.459,2.268-13.609,4.235l-.86.535L17.339,5.972l.358-.228A37.224,37.224,0,0,1,36.157.6C47.4.615,52.456,6.589,52.472,13.589A16.549,16.549,0,0,1,52.1,17.02c-1.484,7.008-6.936,12.939-15.76,15.91l-.211-.625.645.139-.044.2-.645-.139.135-.646c6.819,1.4,11.938,6.35,11.921,13.764a18.52,18.52,0,0,1-.422,3.851C45.433,60.289,35,69.665,19.015,69.654c-7.5-.009-13.542-2.338-16.475-4.57l-.457-.35,4.553-8,.6.446-.394.529.573.327-3.9,6.855-.573-.326.4-.524c2.6,2,8.461,4.307,15.673,4.3C34.481,68.323,44.267,59.36,46.43,49.2a17.255,17.255,0,0,0,.393-3.577c-.018-6.756-4.5-11.107-10.872-12.473l-.65-.137.263-1.216.355-.119C44.4,28.808,49.425,23.245,50.81,16.746a15.228,15.228,0,0,0,.343-3.158c-.055-6.311-4.194-11.6-15-11.667A35.971,35.971,0,0,0,18.406,6.856L18.051,6.3l.653-.092.911,6.451-.653.092-.348-.56c3.331-2.065,8.9-4.425,14.306-4.434,7.064.008,10.225,3.644,10.236,8.166a12.059,12.059,0,0,1-.278,2.51c-1.811,8.239-10.969,11.6-17.568,11.61H20.924l-1.149,5.334h4.1c7.754.011,15.016,3.279,15.032,11.044a14.363,14.363,0,0,1-.3,2.847v0c-1.086,5.7-6.468,13.251-18.162,13.237a25.356,25.356,0,0,1-14-4.266l.394-.529.573.327Z" transform="translate(-0.709 -0.205)" fill="url(#linear-gradient)"/>
        </g>
      </g>
    </g>
    <g id="Rectangle_394" data-name="Rectangle 394" transform="translate(105 210)" fill="#fff" stroke="#707070" stroke-width="1" opacity="0">
      <rect width="475" height="105" stroke="none"/>
      <rect x="0.5" y="0.5" width="474" height="104" fill="none"/>
    </g>
  </g>
</svg>
