<svg xmlns="http://www.w3.org/2000/svg" xmlns:xlink="http://www.w3.org/1999/xlink" width="475" height="105" viewBox="0 0 475 105">
  <defs>
    <linearGradient id="linear-gradient" y1="2.351" x2="1.142" y2="2.327" gradientUnits="objectBoundingBox">
      <stop offset="0" stop-color="#ff6700"/>
      <stop offset="1" stop-color="#ffba0d"/>
    </linearGradient>
    <clipPath id="clip-path">
      <path id="Path_277" data-name="Path 277" d="M27.439,0,11.233,8.207l.961,7.233L25.106,8.853h.215L18.075,70.177h9.177L35.48,0Z" transform="translate(-11.233)" fill="url(#linear-gradient)"/>
    </clipPath>
  </defs>
  <g id="slide_1_t" transform="translate(-105 -210)">
    <g id="Rectangle_394" data-name="Rectangle 394" opacity="0">
      <rect id="Rectangle_394-2" data-name="Rectangle 394" width="475" height="105" transform="translate(105 210)" fill="#fff"/>
      <path id="Rectangle_394_-_Outline" data-name="Rectangle 394 - Outline" d="M1,1V104H474V1H1M0,0H475V105H0Z" transform="translate(105 210)" fill="#707070"/>
    </g>
    <g id="Text" transform="translate(169 210)" style="isolation: isolate">
      <path id="服務總覽" d="M68.184,69.872a94.646,94.646,0,0,1-5.832-11.088,99.2,99.2,0,0,0,4.176-19.368,5.952,5.952,0,0,0-.576-3.24A4.149,4.149,0,0,0,62.136,34.3H51.7v4.824h8.568c.36,0,.576.216.576.648a45.283,45.283,0,0,1-1.656,10.3c-.648-1.872-1.872-6.048-2.448-8.424H51.624a143.67,143.67,0,0,0,5.04,16.92,59.463,59.463,0,0,1-5.976,11.3H57.1a26.4,26.4,0,0,0,2.448-4.464c.648,1.224,1.656,3.312,2.376,4.464Zm-2.52-46.008v-5.04H27.792v5.04H39.96c-.5,2.448-1.44,6.408-2.16,8.856a4.308,4.308,0,0,0,.288,3.384,3.526,3.526,0,0,0,2.952,1.728h1.728a1.387,1.387,0,0,1,1.3,1.224V66.632A1.3,1.3,0,0,1,42.7,67.856H37.08l2.088,4.608H44.64a5.386,5.386,0,0,0,3.816-1.512,5.465,5.465,0,0,0,1.656-3.816V37.112a4.277,4.277,0,0,0-1.584-3.6,5.322,5.322,0,0,0-3.168-.864H44.136c.72-2.232,1.728-6.264,2.3-8.784ZM41.832,60.08V44.312a4.66,4.66,0,0,0-1.08-3.168,4.175,4.175,0,0,0-3.1-1.224h-4.68a2.994,2.994,0,0,0-2.3,1.008,3.811,3.811,0,0,0-1.224,2.664V59.864a4.666,4.666,0,0,0,.936,2.952,3.483,3.483,0,0,0,2.808,1.3h4.752A3.7,3.7,0,0,0,40.608,63.1,4.01,4.01,0,0,0,41.832,60.08Zm-12.6,13.176a202.2,202.2,0,0,1-2.808-35.5H21.6c-.144,9.288.648,26.712,2.088,35.5Zm38.3,7.488V75.92H26.352v4.824Zm-39.6-46.368V29.624H19.728V17.816h-6.12V29.624H4.752v4.752h8.856V80.744h6.12V34.376ZM11.664,37.76H6.7a224.146,224.146,0,0,1-2.448,35.5H9.576A231.011,231.011,0,0,0,11.664,37.76ZM36.936,58.424a.969.969,0,0,1-1.008.936h-.936c-.36,0-.864-.576-.864-1.08V45.68a1.082,1.082,0,0,1,1.008-1.008H36a1.006,1.006,0,0,1,.936.936Zm101.52-30.24V23.216H120.384V17.6H114.12v5.616H95.976v4.968H114.12v4.464h-9.36a5.876,5.876,0,0,0-4.032,1.44,5.177,5.177,0,0,0-1.872,4.1v7.416A6.176,6.176,0,0,0,100.44,50a6.017,6.017,0,0,0,4.464,1.8h9.216V73.256h6.264V51.8h8.928c2.376,0,4.176-.72,5.256-2.16a7.231,7.231,0,0,0,1.224-4.392v-6.48a5.976,5.976,0,0,0-1.512-4.392,7.144,7.144,0,0,0-5.256-1.728h-8.64V28.184Zm.864,42.48a68.268,68.268,0,0,1-9.5-16.2h-6.552a78.473,78.473,0,0,0,8.352,16.2ZM93.456,30.56A61.275,61.275,0,0,1,85.968,17.6h-7.2a70.755,70.755,0,0,0,7.056,12.96ZM140.112,75.7H105.12a22.218,22.218,0,0,1-8.28-1.3,13.084,13.084,0,0,1-6.408-5.04A69.73,69.73,0,0,0,94.752,58.5a4.62,4.62,0,0,0-.576-4.536A4.463,4.463,0,0,0,90.5,52.52H85.248a101.517,101.517,0,0,0,8.136-12.6,4.1,4.1,0,0,0,.144-3.96,3.485,3.485,0,0,0-3.24-1.656H76.968v4.752h9c.72,0,.936.864.648,1.368a144.1,144.1,0,0,1-8.352,12.024,3.151,3.151,0,0,0-.576,3.1,3.07,3.07,0,0,0,2.952,1.872h6.7a.961.961,0,0,1,.936,1.152A76.765,76.765,0,0,1,76.464,80.6h7.56c1.08-1.728,3.024-4.752,4.176-6.7a17.636,17.636,0,0,0,6.984,5.4,15.494,15.494,0,0,0,6.264,1.3h36.5ZM111.1,54.464H104.76c-2.952,5.76-5.9,11.448-10.944,16.2h8.136A61.252,61.252,0,0,0,111.1,54.464Zm18.5-9a1.4,1.4,0,0,1-1.584,1.44h-7.632V37.472h7.7a1.475,1.475,0,0,1,1.512,1.512ZM114.12,46.9h-7.632a1.462,1.462,0,0,1-1.584-1.656V38.912a1.46,1.46,0,0,1,1.512-1.44h7.7Zm97.488-19.656v-4.68H185.256a35.261,35.261,0,0,1-2.952-4.9h-8.28c.864,1.512,2.16,3.816,2.88,4.9H148.9v4.68ZM204.984,40.28V36.608a5.639,5.639,0,0,0-1.656-4.32,6.141,6.141,0,0,0-4.032-1.3h-38.52a5.445,5.445,0,0,0-3.6,1.224,5.128,5.128,0,0,0-1.656,4.032V40.5a5.436,5.436,0,0,0,1.512,3.888,5.213,5.213,0,0,0,3.744,1.512h38.232a5.9,5.9,0,0,0,4.536-1.584A5.51,5.51,0,0,0,204.984,40.28ZM209.952,73.9V56.912A7.269,7.269,0,0,0,208.3,51.8a6.162,6.162,0,0,0-4.968-1.944H157.464a7.022,7.022,0,0,0-4.752,1.584,6.009,6.009,0,0,0-1.944,4.68v24.7h6.552V56.264a1.738,1.738,0,0,1,1.656-1.728h42.48a1.8,1.8,0,0,1,1.872,1.8V73.9a1.951,1.951,0,0,1-2.088,2.16h-9.216l2.16,4.68h9a6.526,6.526,0,0,0,5.256-2.16A7.3,7.3,0,0,0,209.952,73.9Zm-13.176-6.552V64.04a5.545,5.545,0,0,0-1.368-3.888,5.811,5.811,0,0,0-4.392-1.8H169.128a5.162,5.162,0,0,0-5.184,5.184v3.888a5.239,5.239,0,0,0,5.76,5.76h20.664a6.7,6.7,0,0,0,4.9-1.656A5.719,5.719,0,0,0,196.776,67.352Zm1.656-27.792c0,1.152-.576,1.8-1.584,1.8H163.512c-1.008,0-1.368-.72-1.368-1.512V37.184a1.662,1.662,0,0,1,1.584-1.656H196.7a1.682,1.682,0,0,1,1.728,1.8Zm-7.92,27.432A1.55,1.55,0,0,1,189,68.648H171.72a1.292,1.292,0,0,1-1.44-1.44V64.4a1.584,1.584,0,0,1,1.584-1.512h16.992a1.691,1.691,0,0,1,1.656,1.728ZM283.248,24.44V19.688H251.856V24.44h13.536a55.547,55.547,0,0,1-2.016,6.7H260.5a6.513,6.513,0,0,0-4.32,1.44,6.6,6.6,0,0,0-2.232,5.184v22.1a6.642,6.642,0,0,0,1.656,4.608,5.947,5.947,0,0,0,4.464,1.944h14.544a6.588,6.588,0,0,0,4.9-2.088,6.486,6.486,0,0,0,1.656-4.32V37.832a6.733,6.733,0,0,0-2.088-5.112,7.545,7.545,0,0,0-4.9-1.584h-3.96c.5-1.584,1.44-4.968,1.944-6.7Zm.288,56.088a46.426,46.426,0,0,1-6.984-11.664H269.5a59.1,59.1,0,0,0,6.048,11.664ZM252.5,45.1V40.136H242.352V30.7H250.7V25.88h-8.28V17.744h-6.48V40.136h-4.536V21.56h-6.264V40.136h-4.392V45.1h15.192v15.84h5.472c-4.176,7.848-12.6,15.048-20.16,19.584h11.3c10.944-8.5,16.776-17.856,19.728-31.9h-6.624a55.362,55.362,0,0,1-3.312,10.656V45.1Zm12.456,23.76h-7.128a40.03,40.03,0,0,1-7.488,11.664h8.136A73.3,73.3,0,0,0,264.96,68.864ZM232.2,47.552h-6.264c-1.008,5.976-2.3,11.808-4.9,17.136H228.1A79.381,79.381,0,0,0,232.2,47.552Zm42.624-6.336H260.208V37.76a1.939,1.939,0,0,1,1.584-1.872H272.88a1.959,1.959,0,0,1,1.944,1.8Zm0,10.368H260.208V45.968h14.616Zm0,7.92a1.7,1.7,0,0,1-1.728,1.872h-11.16a1.664,1.664,0,0,1-1.728-1.584V56.336h14.616Z" fill="#3e1ee6"/>
    </g>
    <g id="Group_280" data-name="Group 280" transform="translate(124.741 223)">
      <g id="Group_279" data-name="Group 279" transform="translate(0)" clip-path="url(#clip-path)">
        <rect id="Rectangle_374" data-name="Rectangle 374" width="72.789" height="56.454" transform="matrix(0.507, -0.862, 0.862, 0.507, -30.65, 52.17)" fill="url(#linear-gradient)"/>
      </g>
    </g>
  </g>
</svg>
