<svg xmlns="http://www.w3.org/2000/svg" xmlns:xlink="http://www.w3.org/1999/xlink" width="475" height="105" viewBox="0 0 475 105">
  <defs>
    <linearGradient id="linear-gradient" y1="2.351" x2="1.142" y2="2.327" gradientUnits="objectBoundingBox">
      <stop offset="0" stop-color="#ff6700"/>
      <stop offset="1" stop-color="#ffba0d"/>
    </linearGradient>
    <clipPath id="clip-path">
      <path id="Path_282" data-name="Path 282" d="M18.859,44.71,41.771,21.264c2.727-3.184,5.185-6.156,8.34-10.186h.317Q48.709,16.491,47.307,21.9L41.344,44.923H18.8ZM51.183,2.059,9.08,46.092,7.466,52.244H39.447L34.582,71.024h8.806l4.849-18.781h9.637l1.883-7.32h-9.63L61.192,2.059Z" transform="translate(-7.466 -2.059)" fill="url(#linear-gradient)"/>
    </clipPath>
    <clipPath id="clip-path-2">
      <rect id="Rectangle_380" data-name="Rectangle 380" width="60.405" height="71.682" fill="url(#linear-gradient)"/>
    </clipPath>
  </defs>
  <g id="slide_4_t" transform="translate(-105 -210)">
    <g id="Text" transform="translate(173 222)" style="isolation: isolate">
      <path id="服務總覽" d="M62.5,33.08V25.016a6.031,6.031,0,0,0-1.728-4.32,6.678,6.678,0,0,0-4.824-1.872H15.624a5.526,5.526,0,0,0-3.816,1.44,5.64,5.64,0,0,0-1.944,3.96v8.928a6.961,6.961,0,0,0,1.224,3.96,5.48,5.48,0,0,0,4.464,2.376h40.32a6.95,6.95,0,0,0,5.04-2.016A6.511,6.511,0,0,0,62.5,33.08Zm5.76,47.52A111.215,111.215,0,0,1,55.944,70.16a87.437,87.437,0,0,0,7.488-10.872A5.442,5.442,0,0,0,63.72,53.6a4.464,4.464,0,0,0-3.96-1.8H39.384v4.608H57.528a.384.384,0,0,1,.36.576A61.116,61.116,0,0,1,51.84,65.7a47.305,47.305,0,0,1-4.32-5.688H40.248a101.533,101.533,0,0,0,7.7,10.368C44.64,73.9,40.968,77.5,37.44,80.6H46.3c1.944-1.872,3.96-3.96,5.832-5.976,1.656,1.512,4.9,4.536,6.552,5.976ZM67.68,47.552V42.8H4.9v4.752H9.648V70.808c-1.152.072-3.456.072-4.608.072v4.968c7.272-.216,18.36-1.008,24.768-1.512V80.6h6.12V73.616a34.024,34.024,0,0,0,3.816-.288V68.216c-.936.144-2.664.36-3.816.432v-21.1ZM56.016,26.816H16.2V24.44a1.184,1.184,0,0,1,1.152-1.152H54.576a1.4,1.4,0,0,1,1.44,1.44Zm0,6.624a1.29,1.29,0,0,1-1.3,1.44H17.352c-.72,0-1.152-.576-1.152-1.368V31.28H56.016Zm-26.208,18h-13.9V47.552h13.9Zm0,8.568h-13.9V56.12h13.9Zm0,9.288c-3.456.288-11.088.936-13.9,1.152v-5.76h13.9ZM140.9,81.032A77.235,77.235,0,0,1,135,66.56h-6.552c.5,1.584,1.44,4.68,2.016,6.192-1.872.288-5.544.72-7.56.792V64.112h9.072a6.527,6.527,0,0,0,4.248-1.656,5.235,5.235,0,0,0,1.8-3.888V47.336a6.218,6.218,0,0,0-1.944-4.392,6,6,0,0,0-3.888-1.728H122.9V35.888h5.472l2.016-4.1c.5,1.152,1.44,3.024,2.016,4.032h7.128a75.151,75.151,0,0,1-6.984-14.832H126a92.9,92.9,0,0,0,3.816,9.648H109.944l9.216-12.888h-7.7l-8.64,12.1a4.13,4.13,0,0,0-.648,3.672,3.585,3.585,0,0,0,3.528,2.376H116.64v5.328h-7.848a7.355,7.355,0,0,0-4.752,1.512,5.909,5.909,0,0,0-2.088,4.9v10.44a5.831,5.831,0,0,0,2.088,4.608,6.549,6.549,0,0,0,4.032,1.44h8.568v10.08c-4.176.36-12.456.864-16.56.936v5.616c9.576-.648,23.184-1.944,32.4-2.952a32.672,32.672,0,0,0,1.512,3.24Zm-42.192-6.7V58.856a7.543,7.543,0,0,0-1.368-4.536,5.158,5.158,0,0,0-4.32-1.944H84.816A1.405,1.405,0,0,1,83.3,51.008V41.144a1.559,1.559,0,0,1,1.512-1.44h7.632a5.763,5.763,0,0,0,4.392-1.872A5.535,5.535,0,0,0,98.424,33.8V24.656a6.027,6.027,0,0,0-1.512-4.1,5.356,5.356,0,0,0-4.176-1.728H76.9v5.112H90.864a1.561,1.561,0,0,1,1.44,1.512v7.488a1.729,1.729,0,0,1-1.584,1.728H82.872A5.941,5.941,0,0,0,78.7,36.392a5.588,5.588,0,0,0-1.656,4.032V51.44a5.852,5.852,0,0,0,1.944,4.608,6.648,6.648,0,0,0,4.1,1.3H90.72A1.724,1.724,0,0,1,92.376,59V74.408a1.723,1.723,0,0,1-1.8,1.728H80.424l2.16,4.9H91.44c2.664,0,4.536-.792,5.688-2.088A6.524,6.524,0,0,0,98.712,74.336Zm32.976-17.064a1.725,1.725,0,0,1-1.656,1.656H122.9V46.4h7.2a1.7,1.7,0,0,1,1.584,1.584ZM116.64,58.928h-6.984a1.52,1.52,0,0,1-1.368-1.584V48.056a1.781,1.781,0,0,1,1.656-1.656h6.7ZM211.608,26.6V21.7H191.88c.432-1.08,1.152-2.88,1.44-3.816h-7.128a51.157,51.157,0,0,1-8.568,15.984h7.92c1.368-2.16,3.168-5.256,4.248-7.272h4.32a35.112,35.112,0,0,0,3.528,7.2h7.344a30.754,30.754,0,0,1-3.96-7.2Zm-31.32-.072v-4.9H162.864a37.1,37.1,0,0,0,1.512-3.744h-7.128a53.563,53.563,0,0,1-8.784,15.984h7.92a72.116,72.116,0,0,0,4.176-7.344h4.608a49.493,49.493,0,0,0,3.6,7.344h7.344a33.66,33.66,0,0,1-3.744-7.344ZM209.952,67.28V42.008a5.655,5.655,0,0,0-1.872-4.392,6.677,6.677,0,0,0-4.536-1.584H189.432a6.062,6.062,0,0,0-4.032,1.512,5.632,5.632,0,0,0-1.944,4.248V80.6h6.336V42.584a1.275,1.275,0,0,1,1.224-1.44h11.16a1.381,1.381,0,0,1,1.44,1.512V67.424a1.706,1.706,0,0,1-1.728,1.728h-8.856l2.592,4.9h7.56A6.775,6.775,0,0,0,208.3,72.1,7,7,0,0,0,209.952,67.28ZM180.36,80.672a73.335,73.335,0,0,1-7.7-16.056h-6.984A98.761,98.761,0,0,0,170.424,75.7H158.4a1.264,1.264,0,0,1-1.3-1.368V61.664h14.832a6.566,6.566,0,0,0,4.608-1.656,6.133,6.133,0,0,0,1.728-4.464V41.576a5.872,5.872,0,0,0-5.472-5.688H156.96a6.157,6.157,0,0,0-4.32,1.728,5.907,5.907,0,0,0-1.872,4.392V74.552a6.707,6.707,0,0,0,1.44,4.248,5.068,5.068,0,0,0,3.816,1.8h12.888l1.728-4.248a36.826,36.826,0,0,0,2.448,4.32Zm-8.352-34.488H157.1V42.3a1.535,1.535,0,0,1,1.512-1.584h11.952a1.373,1.373,0,0,1,1.44,1.3Zm0,9a1.48,1.48,0,0,1-1.44,1.584H157.1V51.08h14.9Zm111.816-14.9H264.96a2.03,2.03,0,0,1-2.232-2.016v-2.88c7.416-3.672,14.832-8.568,20.52-15.264H274.9a45.388,45.388,0,0,1-12.168,9.144V17.816H256.32V39.344a6.047,6.047,0,0,0,1.872,4.176,5.376,5.376,0,0,0,3.744,1.728h19.728Zm-29.16-3.528c-3.456-4.824-6.12-11.52-7.416-15.12h-6.336a73.553,73.553,0,0,0,4.032,10.08H229.608l9.072-13.9H231.7l-9.072,13.968a3.292,3.292,0,0,0-.072,3.168,3.143,3.143,0,0,0,2.808,1.8h17.784l2.376-3.888c.5,1.08,1.368,2.664,2.088,3.888Zm29.448,38.88h-19.3A1.855,1.855,0,0,1,262.8,73.76v-5.9c7.488-4.032,15.192-9.072,20.952-16.2h-8.208c-3.6,4.176-8.352,7.272-12.744,10.008V48.416h-6.336V73.832a7.146,7.146,0,0,0,1.656,4.68,5.575,5.575,0,0,0,4.32,1.944h19.512Zm-32.76-.432V46.832a5.693,5.693,0,0,0-1.512-3.888,5.962,5.962,0,0,0-4.32-1.8H229.248a5.925,5.925,0,0,0-4.032,1.512,5.314,5.314,0,0,0-1.656,4.176v33.7h6.408V67.28h15.12v6.408a1.909,1.909,0,0,1-1.8,1.944h-6.84l2.232,4.9h7.272a5.717,5.717,0,0,0,3.744-1.656A5.3,5.3,0,0,0,251.352,75.2Zm-6.264-23.472h-15.12v-3.96a1.817,1.817,0,0,1,1.8-1.728h11.448a1.947,1.947,0,0,1,1.872,1.8Zm0,10.728h-15.12v-5.9h15.12Z" transform="translate(0 -12)" fill="#3e1ee6"/>
    </g>
    <g id="Group_295" data-name="Group 295" transform="translate(105.584 221)">
      <g id="Group_292" data-name="Group 292" transform="translate(4.925 1.358)">
        <g id="Group_291" data-name="Group 291" clip-path="url(#clip-path)">
          <rect id="Rectangle_379" data-name="Rectangle 379" width="53.726" height="68.965" transform="translate(0 0)" fill="url(#linear-gradient)"/>
        </g>
      </g>
      <g id="Group_294" data-name="Group 294" transform="translate(0 0)">
        <g id="Group_293" data-name="Group 293" clip-path="url(#clip-path-2)">
          <path id="Path_283" data-name="Path 283" d="M33.921,70.514l-.958-.248,4.545-17.542H5.523l2-7.642L50.1.559H61.808L50.742,43.423h9.629l-2.392,9.3H48.342L43.494,71.5H32.642l.321-1.237.958.248v-.989h8.04l4.848-18.78h9.636L57.819,45.4H48.188L59.253,2.538H50.944L9.311,46.079,8.088,50.745H40.064L34.879,70.762l-.958-.248v0Zm6.762-26.1-.958-.248L45.689,21.14q1.408-5.435,3.134-10.873l.943.3v.989H49.45v-.989l.779.61C47.067,15.218,44.6,18.206,41.861,21.4l-.021.024L18.906,44.892,18.2,44.2l.957.25-.055.212-.957-.25v-.989h22.54v.989l-.958-.248.958.248V45.4H16.862l.445-1.706L40.4,20.063l.708.691-.751-.644c2.72-3.176,5.166-6.132,8.312-10.153l.3-.38h2.151l-.41,1.289Q49,16.255,47.6,21.636L41.448,45.4h-.766Z" transform="translate(-1.88 -0.19)" fill="url(#linear-gradient)"/>
        </g>
      </g>
    </g>
    <g id="Rectangle_394" data-name="Rectangle 394" transform="translate(105 210)" fill="#fff" stroke="#707070" stroke-width="1" opacity="0">
      <rect width="475" height="105" stroke="none"/>
      <rect x="0.5" y="0.5" width="474" height="104" fill="none"/>
    </g>
  </g>
</svg>
