<svg xmlns="http://www.w3.org/2000/svg" xmlns:xlink="http://www.w3.org/1999/xlink" width="475" height="105" viewBox="0 0 475 105">
  <defs>
    <linearGradient id="linear-gradient" y1="2.351" x2="1.142" y2="2.327" gradientUnits="objectBoundingBox">
      <stop offset="0" stop-color="#ff6700"/>
      <stop offset="1" stop-color="#ffba0d"/>
    </linearGradient>
    <clipPath id="clip-path">
      <path id="Path_278" data-name="Path 278" d="M17.193,8.3l1.413,6.292c3.6-2.538,9.22-5.583,15.171-5.583,9.783,0,11.64,6.19,10.155,12.888C41.627,31.844,32.148,40.37,11.757,56.4L3.235,63.2,2,68.684H44.118l1.635-7.409H16.141l.046-.2L22.545,56.2C39.4,42.805,50.377,32.96,53.065,20.783,55.147,11.344,51.351,1.6,37.242,1.6A35.088,35.088,0,0,0,17.193,8.3" transform="translate(-2.003 -1.603)" fill="url(#linear-gradient)"/>
    </clipPath>
    <clipPath id="clip-path-2">
      <rect id="Rectangle_376" data-name="Rectangle 376" width="53.97" height="69.195" fill="url(#linear-gradient)"/>
    </clipPath>
  </defs>
  <g id="slide_2_t" transform="translate(-105 -210)">
    <g id="Text" transform="translate(173 222)" style="isolation: isolate">
      <path id="服務總覽" d="M65.88,27.032V22.424H53.136V17.6h-6.7v4.824H25.56V17.6H18.792v4.824H6.264v4.608H18.792v2.3a5.949,5.949,0,0,0,1.3,3.6,5.018,5.018,0,0,0,3.888,1.944h23.76a5.13,5.13,0,0,0,3.744-1.512,5.889,5.889,0,0,0,1.656-4.1V27.032ZM67.32,42.44V37.832H4.752V42.44H32.688V45.9H14.9a5.686,5.686,0,0,0-4.1,1.728A5.88,5.88,0,0,0,9,51.584v12.6a5.654,5.654,0,0,0,2.088,4.248,5.316,5.316,0,0,0,3.6,1.44h43.2a5.8,5.8,0,0,0,3.96-1.944,5.508,5.508,0,0,0,1.584-3.672V52.016a5.825,5.825,0,0,0-1.44-4.176A7.087,7.087,0,0,0,57.1,45.9H39.24V42.44Zm1.368,38.088A71.008,71.008,0,0,1,54.72,72.176H44.136A76.367,76.367,0,0,0,55.3,80.528ZM27.36,72.176H17.424A51.45,51.45,0,0,1,4.032,80.528h13.32A54.566,54.566,0,0,0,27.36,72.176ZM46.44,28.4a1.691,1.691,0,0,1-1.728,1.656H27.288a1.786,1.786,0,0,1-1.728-1.584v-1.44H46.44Zm10.512,27H39.24V50.576H55.08A1.885,1.885,0,0,1,56.952,52.3Zm0,7.92a1.96,1.96,0,0,1-2.088,1.872H39.24v-5.04H56.952ZM32.688,55.4H15.48V52.3a1.885,1.885,0,0,1,1.872-1.728H32.688Zm0,9.792H17.28a2.069,2.069,0,0,1-1.8-1.872V60.152H32.688Zm98.5-8.136h-6.552c-1.584,5.4-3.312,10.728-6.48,15.48h7.56A96.322,96.322,0,0,0,131.184,57.056Zm8.928-15.984c-5.832-5.76-11.52-11.808-15.84-18.216a10.18,10.18,0,0,0-2.664-2.88A7.48,7.48,0,0,0,117,18.536H98.928a8.154,8.154,0,0,0-3.672.72,6.8,6.8,0,0,0-3.1,2.664c-4.68,6.48-9.936,13.536-16.272,19.152h8.64a69.407,69.407,0,0,0,5.184-5.544v3.888h15.264v9.576H80.064v5.184h24.912V75.632H76.752v5.184h62.856V75.632H111.6V54.176h24.768V48.992H111.6V39.416h14.76v-3.96a72.914,72.914,0,0,0,4.968,5.616Zm-41.9,31.464a86.379,86.379,0,0,1-6.624-15.48h-6.84a105.839,105.839,0,0,0,5.976,15.48Zm27-38.3H90.648c2.232-2.808,5.328-6.984,7.056-9.648a2.323,2.323,0,0,1,2.232-1.008H115.7a2.749,2.749,0,0,1,2.448,1.224C119.952,27.392,123.192,31.64,125.208,34.232ZM212.04,75.344h-6.408a1.7,1.7,0,0,1-1.44-.936,193.615,193.615,0,0,1-6.408-27H211.32V42.08H196.992c-1.08-5.688-1.728-11.808-2.232-17.568,3.456-.36,10.368-1.152,14.04-1.584V17.456c-9.72,1.368-24.048,2.952-33.768,3.456a7.907,7.907,0,0,0-5.112,1.872A6.838,6.838,0,0,0,167.9,28.04V73.9a7.292,7.292,0,0,0,1.3,4.464,5.774,5.774,0,0,0,4.68,2.088h9.36l2.232-4.9h-9.36a1.531,1.531,0,0,1-1.584-1.656v-26.5H191.3c1.872,10.3,3.672,20.16,7.344,29.88a4.437,4.437,0,0,0,2.088,2.448,6.876,6.876,0,0,0,3.024.72h6.192Zm-15.192,5.184c-3.672-4.968-6.048-11.088-7.92-16.848h-6.552a88.172,88.172,0,0,0,6.912,16.848ZM168.984,18.176H161.64A74.344,74.344,0,0,1,148.1,41.216h6.768V80.672H161.5V39.2h-3.6A84.117,84.117,0,0,0,168.984,18.176Zm21.456,23.9H174.528V27.824a1.684,1.684,0,0,1,1.512-1.656c3.672-.216,8.928-.648,12.312-1.008C188.856,29.84,189.648,36.464,190.44,42.08Zm92.808-17.64V19.688H251.856V24.44h13.536a55.547,55.547,0,0,1-2.016,6.7H260.5a6.513,6.513,0,0,0-4.32,1.44,6.6,6.6,0,0,0-2.232,5.184v22.1a6.642,6.642,0,0,0,1.656,4.608,5.947,5.947,0,0,0,4.464,1.944h14.544a6.588,6.588,0,0,0,4.9-2.088,6.486,6.486,0,0,0,1.656-4.32V37.832a6.733,6.733,0,0,0-2.088-5.112,7.545,7.545,0,0,0-4.9-1.584h-3.96c.5-1.584,1.44-4.968,1.944-6.7Zm.288,56.088a46.426,46.426,0,0,1-6.984-11.664H269.5a59.1,59.1,0,0,0,6.048,11.664ZM252.5,45.1V40.136H242.352V30.7H250.7V25.88h-8.28V17.744h-6.48V40.136h-4.536V21.56h-6.264V40.136h-4.392V45.1h15.192v15.84h5.472c-4.176,7.848-12.6,15.048-20.16,19.584h11.3c10.944-8.5,16.776-17.856,19.728-31.9h-6.624a55.362,55.362,0,0,1-3.312,10.656V45.1Zm12.456,23.76h-7.128a40.03,40.03,0,0,1-7.488,11.664h8.136A73.3,73.3,0,0,0,264.96,68.864ZM232.2,47.552h-6.264c-1.008,5.976-2.3,11.808-4.9,17.136H228.1A79.381,79.381,0,0,0,232.2,47.552Zm42.624-6.336H260.208V37.76a1.939,1.939,0,0,1,1.584-1.872H272.88a1.959,1.959,0,0,1,1.944,1.8Zm0,10.368H260.208V45.968h14.616Zm0,7.92a1.7,1.7,0,0,1-1.728,1.872h-11.16a1.664,1.664,0,0,1-1.728-1.584V56.336h14.616Z" transform="translate(0 -12)" fill="#3e1ee6"/>
    </g>
    <g id="Group_285" data-name="Group 285" transform="translate(106.015 223)">
      <g id="Group_282" data-name="Group 282" transform="translate(1.321 1.057)">
        <g id="Group_281" data-name="Group 281" clip-path="url(#clip-path)">
          <rect id="Rectangle_375" data-name="Rectangle 375" width="53.144" height="67.081" transform="translate(0 0)" fill="url(#linear-gradient)"/>
        </g>
      </g>
      <g id="Group_284" data-name="Group 284" transform="translate(0 0)">
        <g id="Group_283" data-name="Group 283" clip-path="url(#clip-path-2)">
          <path id="Path_279" data-name="Path 279" d="M1.578,68.344.934,68.2l1.283-5.708,8.706-6.946,0,0c20.4-16.021,29.746-24.53,31.94-34.134l0,.006a17.194,17.194,0,0,0,.438-3.691c-.088-4.791-2.318-8.3-9.948-8.394-5.723-.009-11.257,2.962-14.792,5.462l-.807.569L16.028,7.678l.356-.254A35.737,35.737,0,0,1,36.817.6c12.036.015,17,7.153,17.013,15.141a22.515,22.515,0,0,1-.547,4.841C50.5,33.082,39.379,42.97,22.53,56.377l0,0-6.363,4.873-.4-.524.644.144-.046.2-.644-.144v-.66H46.148L44.223,69H.753l.181-.8.644.145v-.66H43.163l1.343-6.09H14.892l.278-1.241,6.549-5.015.4.524-.411-.516C38.571,41.96,49.4,32.158,51.995,20.3a21.223,21.223,0,0,0,.516-4.557C52.439,8.3,48.3,1.99,36.817,1.922A34.427,34.427,0,0,0,17.15,8.5l-.383-.536.643-.145,1.413,6.291-.643.145-.381-.539c3.658-2.575,9.372-5.7,15.552-5.7,8.1.009,11.256,4.4,11.268,9.714A18.512,18.512,0,0,1,44.15,21.7v.006C41.732,32,32.118,40.537,11.74,56.581l0,0L3.4,63.233,2.221,68.488l-.643-.144v0Z" transform="translate(-0.256 -0.205)" fill="url(#linear-gradient)"/>
        </g>
      </g>
    </g>
    <g id="Rectangle_394" data-name="Rectangle 394" transform="translate(105 210)" fill="#fff" stroke="#707070" stroke-width="1" opacity="0">
      <rect width="475" height="105" stroke="none"/>
      <rect x="0.5" y="0.5" width="474" height="104" fill="none"/>
    </g>
  </g>
</svg>
