<?xml version="1.0" encoding="utf-8"?>
<!-- Generator: Adobe Illustrator 23.1.0, SVG Export Plug-In . SVG Version: 6.00 Build 0)  -->
<svg version="1.1" id="圖層_1" xmlns="http://www.w3.org/2000/svg" xmlns:xlink="http://www.w3.org/1999/xlink" x="0px" y="0px"
	 viewBox="0 0 191.8 41" style="enable-background:new 0 0 191.8 41;" xml:space="preserve">
<style type="text/css">
	.st0{fill:#D62C2E;}
	.st1{fill:#EC402E;}
	.st2{fill:#DE5398;}
	.st3{fill:#4A519F;}
	.st4{fill:#5E5CA5;}
	.st5{fill:#F58F31;}
	.st6{fill:#F06A2F;}
	.st7{fill:#064D59;}
	.st8{fill:#FCBA31;}
	.st9{fill:#0F897A;}
	.st10{fill:#FCD630;}
	.st11{fill:#59C0AB;}
	.st12{fill:#0CAA7E;}
	.st13{fill:#F79B31;}
	.st14{fill:#CF2875;}
	.st15{fill:#2D2D70;}
</style>
<g>
	<polygon class="st0" points="33.9,28.4 20.3,20.5 20.3,36.2 	"/>
	<polygon class="st1" points="6.6,28.4 6.6,28.4 20.3,36.2 20.3,20.5 	"/>
	<polygon class="st2" points="40.5,20.5 37.8,10.4 33.9,12.6 	"/>
	<polygon class="st3" points="33.9,28.4 30.4,38 37.8,30.6 	"/>
	<polygon class="st4" points="37.8,30.6 40.5,20.5 33.9,28.4 	"/>
	<polygon class="st5" points="20.3,4.8 6.6,12.6 20.3,20.5 	"/>
	<polygon class="st1" points="33.9,28.4 33.9,12.6 20.3,20.5 	"/>
	<polygon class="st6" points="6.6,12.6 6.6,28.4 20.3,20.5 	"/>
	<polygon class="st7" points="20.3,40.8 30.4,38 20.3,36.2 	"/>
	<polygon class="st8" points="33.9,12.6 37.8,10.4 30.4,3 	"/>
	<polygon class="st6" points="33.9,12.6 33.9,12.6 20.3,4.8 20.3,20.5 	"/>
	<polygon class="st8" points="2.7,10.4 0,20.5 6.6,12.6 	"/>
	<polygon class="st9" points="20.3,36.2 10.1,38 20.3,40.8 	"/>
	<polygon class="st10" points="6.6,12.6 10.1,3 2.7,10.4 	"/>
	<polygon class="st10" points="20.3,0.2 10.1,3 20.3,4.8 	"/>
	<polygon class="st8" points="0,20.5 2.7,30.6 6.6,28.4 	"/>
	<polygon class="st11" points="6.6,28.4 2.7,30.6 10.1,38 	"/>
	<polygon class="st8" points="30.4,3 20.3,0.2 20.3,4.8 	"/>
	<polygon class="st4" points="20.3,36.2 30.4,38 33.9,28.4 	"/>
	<polygon class="st12" points="6.6,28.4 10.1,38 20.3,36.2 	"/>
	<polygon class="st13" points="33.9,12.6 30.4,3 20.3,4.8 	"/>
	<polygon class="st14" points="33.9,12.6 33.9,28.4 40.5,20.5 	"/>
	<polygon class="st8" points="20.3,4.8 10.1,3 6.6,12.6 	"/>
	<polygon class="st13" points="6.6,28.4 6.6,12.6 0,20.5 	"/>
	<path class="st15" d="M141.6,13.6h-11.3v5.3h11.3V13.6z M132.6,15.6h6.7v1.3h-6.7V15.6z"/>
	<polygon class="st15" points="144.3,19.1 146.6,19.1 146.6,12.4 149,12.4 149,10.2 128.5,10.2 128.5,12.4 144.3,12.4 	"/>
	<path class="st15" d="M54,30.8h15.6c1.9,0,3.4-1.1,3.4-3v-6.1H54V30.8z M56.5,24.1h14v3c0,1-0.5,1.3-1.4,1.3H56.5V24.1z"/>
	<path class="st15" d="M69,14l1.6,2.8H56.3v-0.5c0-1,0.5-1.7,1.3-2l6-2.9l-1.1-2.3l-6.2,3.1c-1.9,0.9-2.7,2.4-2.7,4.3v2.9h18.5
		l0.7,1.2l2.2-1.1L71.2,13L69,14z"/>
	<path class="st15" d="M127.4,22.2h16.9v4.4c0,2.4-1.7,2.9-4,2.9v2.3h0.4c3.9,0,6-1.7,6-5.3v-4.4h2.9V20h-22.1V22.2z"/>
	<path class="st15" d="M115.4,17.2h9.2v-2.6h-9.2V9.8h-2.6v4.8h-9v2.6h8.9c-0.8,4.5-2.5,9.2-9.6,11.9l1.3,2.3
		c6.8-2.6,8.9-6.7,9.9-10.6c1.5,4.2,4.7,8.5,9.8,10.6l1.4-2.4C119.2,26.2,116.4,21.3,115.4,17.2"/>
	<path class="st15" d="M141.6,23.4h-11.5v5.5h11.5V23.4z M139.3,26.9h-6.9v-1.5h6.9V26.9z"/>
	<path class="st15" d="M163.5,17.2h9.2v-2.6h-9.2V9.8h-2.7v4.8h-9v2.6h8.9c-0.8,4.5-2.5,9.2-9.6,11.9l1.3,2.3
		c6.8-2.6,8.9-6.7,9.9-10.6c1.5,4.2,4.7,8.5,9.8,10.6l1.4-2.4C167.2,26.2,164.4,21.3,163.5,17.2"/>
	<path class="st15" d="M79.9,23.3c0,3.4-0.5,5.4-3,6.4l1.4,1.9c3.4-1.3,3.9-4.6,3.9-8.7v-0.2h-2.3V23.3z"/>
	<polygon class="st15" points="77.5,10.9 80.9,14.7 82.6,13.1 79.2,9.4 	"/>
	<polygon class="st15" points="77.4,16.8 80.8,20.6 82.5,19.1 79.1,15.4 	"/>
	<path class="st15" d="M86.3,25.5h12.6V21H83.8v1.8h12.7v0.9H84.3l-1,5.4l2.3,0.4l0.2-1h11.7c-0.3,0.8-1.5,1.2-5,1.3v2.1h0.3
		c5.1,0,7.1-1.4,7.1-4.2v-1.1H86.1L86.3,25.5z"/>
	<polygon class="st15" points="88.2,11.9 88.2,10.2 90.5,10.2 90.5,9.3 92.4,9.3 92.4,10.2 94.8,10.2 94.8,11.9 	"/>
	<polygon class="st15" points="92.3,20 92.3,19.1 90.7,19.1 90.7,20 89,20 89,17.4 94,17.4 94,20 	"/>
	<rect x="89.2" y="15" class="st15" width="4.5" height="1.7"/>
	<rect x="89.2" y="12.6" class="st15" width="4.5" height="1.7"/>
	<path class="st15" d="M86.5,18.3h-1.3v-0.1c0-0.3,0-0.6,0.2-1l3.1-3.7l-1.3-1l-1.2,1.4h-0.9v-0.4c0-0.3,0.1-0.6,0.3-0.8l1.7-2.2
		l-1.3-1l-2,2.5c-0.4,0.4-0.5,0.9-0.5,1.5v1.9h1.5l-1,1.1c-0.4,0.5-0.6,1.1-0.6,1.9V20h5v-3.3h-1.8V18.3z"/>
	<path class="st15" d="M97.9,18.3h-1.3v-0.1c0-0.3,0-0.6,0.2-1l3.1-3.7l-1.3-1l-1.2,1.4h-0.9v-0.4c0-0.3,0.1-0.6,0.3-0.8l1.7-2.2
		l-1.3-1l-2,2.5c-0.4,0.4-0.5,0.9-0.5,1.5v1.9h1.5l-1,1.1c-0.4,0.5-0.6,1.1-0.6,1.9V20h5v-3.3h-1.8V18.3z"/>
</g>
</svg>
