<?xml version="1.0" encoding="utf-8"?>
<!-- Generator: Adobe Illustrator 26.4.1, SVG Export Plug-In . SVG Version: 6.00 Build 0)  -->
<svg version="1.1" id="圖層_1" xmlns="http://www.w3.org/2000/svg" xmlns:xlink="http://www.w3.org/1999/xlink" x="0px" y="0px"
	 viewBox="0 0 65 65" style="enable-background:new 0 0 65 65;" xml:space="preserve">
<style type="text/css">
	.st0{fill:#231815;}
	.st1{fill-rule:evenodd;clip-rule:evenodd;fill:#231815;}
	.st2{fill:#FF6700;}
</style>
<g id="renew">
	<g id="icon_x2F_service_x2F_keep-deal_x2F_default" transform="translate(16.000000, 14.000000)">
		<g id="keep-phone" transform="translate(-1.000000, -1.000000)">
			<path id="Shape" class="st0" d="M34.2,0H14l-1,1v12.1h2V6.2h18.2v22.3H15v-3.9h-2v12l1,1h20.2l1-1V1L34.2,0z M33.2,35.6H15v-5.1
				h18.2V35.6z M33.2,4.2H15V2h18.2V4.2z"/>
			<rect id="Rectangle" x="22.7" y="32.1" class="st1" width="2.8" height="2"/>
			<path id="Shape_00000009550313298431521760000005192779012109399486_" class="st2" d="M20.1,18.4l-4.6-7.8L14.4,10H5.5l-1.1,0.6
				L0,18.4v1.3l4.6,7.8l1.1,0.6h8.8l1.1-0.6l4.5-7.7V18.4z M9.2,22.8H7.8l-3.4-3.4L5.8,18l2.7,2.7l5.8-5.8l1.4,1.4L9.2,22.8z"/>
		</g>
	</g>
</g>
</svg>
