<svg xmlns="http://www.w3.org/2000/svg" width="246.768" height="42.144" viewBox="0 0 246.768 42.144">
  <path id="sec-title-續換約" d="M41.28-29.472a61.777,61.777,0,0,1-2.16-7.68H34.944a69.247,69.247,0,0,0,1.968,7.68ZM45.408-.96h-5.52A1.66,1.66,0,0,1,38.5-2.016a41.816,41.816,0,0,1-2.352-6.768,52.645,52.645,0,0,0,7.1-13.1h-4.7A43.373,43.373,0,0,1,34.9-14.016a98.952,98.952,0,0,1-1.584-10.128H44.4v-3.312H33.072c-.288-3.888-.432-8.064-.432-11.808H28.32c.1,3.6.336,8.208.528,11.808H18.624v-7.056c2.736-.288,6.672-.816,8.16-1.152V-39.12a151.2,151.2,0,0,1-21.5,2.5v3.264c1.824-.048,6.384-.384,8.88-.624v6.528H3.552v3.312H14.16v8.592c-2.4.72-7.824,1.92-10.9,2.544v3.456c3.072-.576,7.488-1.584,10.9-2.5v10.08A.947.947,0,0,1,13.152-.912H7.872L9.168,2.4H14.64a4,4,0,0,0,2.976-1.056A4.262,4.262,0,0,0,18.624-1.68V-13.344c3.024-.864,6.288-1.92,8.736-2.832v-3.552A87.633,87.633,0,0,1,18.624-16.9v-7.248H29.232A69.476,69.476,0,0,0,31.584-9.5,50.409,50.409,0,0,1,19.344.288H26.88a70.894,70.894,0,0,0,6.048-5.424A46.884,46.884,0,0,0,34.7-.24a4.668,4.668,0,0,0,1.584,1.872A4.288,4.288,0,0,0,38.64,2.4h4.9ZM92.592-36v-3.216H51.84V-36H64.416v3.456h-7.3a3.828,3.828,0,0,0-2.64,1.008,3.938,3.938,0,0,0-1.248,2.928v4.272a4.16,4.16,0,0,0,1.248,3.264,4.176,4.176,0,0,0,2.688.816H86.976a4.01,4.01,0,0,0,2.64-1.008,2.9,2.9,0,0,0,1.1-2.16V-29.04a3.4,3.4,0,0,0-1.152-2.544,3.884,3.884,0,0,0-2.688-.96H79.632V-36Zm.432,24.192V-15.12h-21.6l3.984-3.936H69.216l-3.84,3.936H51.216v3.312H62.064L59.952-9.7a2.5,2.5,0,0,0-.864,1.68,1.564,1.564,0,0,0,.96,1.632A74.915,74.915,0,0,0,67.44-2.832,97.262,97.262,0,0,1,51.168,2.3H65.616c2.256-.96,4.368-2.016,6.576-3.12,1.92.816,5.9,2.4,7.824,3.12H92.4C87.888.768,81.84-1.392,77.136-3.312a33.11,33.11,0,0,0,9.12-8.5Zm-6.672-12.72A.926.926,0,0,1,85.3-23.52H79.632v-5.712h5.616a1.076,1.076,0,0,1,1.1,1.056ZM75.36-32.544H68.688V-36H75.36Zm0,9.024H68.688v-5.712H75.36Zm-10.944,0H58.752a.982.982,0,0,1-1.056-.912v-3.744c0-.48.336-1.056.864-1.056h5.856ZM80.784-11.808a23.782,23.782,0,0,1-8.256,6.624c-2.4-.864-5.28-2.256-7.056-3.12a.428.428,0,0,1-.1-.72l2.832-2.784Zm60.144-22.176v-2.928H129.744v-2.4h-4.128v2.4H114.624v2.928h10.992v1.728H116.3v2.832h23.232v-2.832h-9.792v-1.728ZM140.3-22.752v-1.824a3.232,3.232,0,0,0-1.056-2.5,3.712,3.712,0,0,0-2.352-.72h-18.72a3.058,3.058,0,0,0-1.92.72,3.12,3.12,0,0,0-1.056,2.208v2.256a3.37,3.37,0,0,0,1.008,2.3,2.749,2.749,0,0,0,1.824.768h18.96a3.471,3.471,0,0,0,2.448-.816A3.108,3.108,0,0,0,140.3-22.752Zm-1.44,16.608V-14.3a4.03,4.03,0,0,0-.96-2.64,3.161,3.161,0,0,0-2.4-1.1h-15.12a3.783,3.783,0,0,0-2.352.816,3,3,0,0,0-1.2,2.352v8.736a3.4,3.4,0,0,0,.816,2.112,2.972,2.972,0,0,0,2.208,1.152h15.552a3.628,3.628,0,0,0,2.544-1.056A3.166,3.166,0,0,0,138.864-6.144Zm3.024,8.688a32.851,32.851,0,0,1-6.144-4.32h-5.808a27.643,27.643,0,0,0,4.848,4.32ZM115.68-12.528a66.343,66.343,0,0,1-2.256-8.736H109.68c.24,1.488.816,4.272,1.1,5.52h-6.576L115.2-31.632h-4.944l-1.968,2.976h-4.272l6.768-10.656h-4.56L99.6-28.752a2.046,2.046,0,0,0-.048,2.208,2.142,2.142,0,0,0,1.776,1.056h4.8l-6.1,8.832a2.642,2.642,0,0,0-.336,2.784,2.623,2.623,0,0,0,2.3,1.3h7.632l1.3-2.5c.24.768.576,1.872.864,2.544ZM127.152-1.776H121.1a23.8,23.8,0,0,1-6.384,4.32h6.816A24.052,24.052,0,0,0,127.152-1.776ZM115.824.48A55.525,55.525,0,0,1,114.288-10.9h-3.5c.288,3.84.672,7.68,1.3,11.376Zm-5.232,2.064a81.774,81.774,0,0,1-1.3-13.44h-3.6a94.015,94.015,0,0,0,1.1,13.44ZM104.448-10.9h-3.6a49.13,49.13,0,0,1-1.68,13.44H103.1A72.91,72.91,0,0,0,104.448-10.9Zm31.728-12.432a.945.945,0,0,1-.96.816h-2.16V-24.96h2.16a.987.987,0,0,1,.96.816Zm-6.912.816H126.24V-24.96h3.024Zm-6.768,0h-2.352a.821.821,0,0,1-.72-.768v-.912a.917.917,0,0,1,.768-.768h2.3Zm12.144,8.688H121.056v-.72a.925.925,0,0,1,.864-.816h11.952a.825.825,0,0,1,.768.768Zm0,3.984H121.056v-1.488H134.64Zm0,3.264a.809.809,0,0,1-.816.816h-12a.926.926,0,0,1-.768-.864V-7.3H134.64ZM144.144,0h3.408l9.6-34.272h-3.408Zm55.872-14.064V-24.912a4.078,4.078,0,0,0-1.056-2.976,4.845,4.845,0,0,0-3.552-1.248H192.24a15.088,15.088,0,0,0,1.776-3.12,3.059,3.059,0,0,0-.144-2.832,2.567,2.567,0,0,0-2.256-1.2h-5.76A22.3,22.3,0,0,0,187.3-39.6h-4.8a33.82,33.82,0,0,1-9.36,13.392h3.84V-13.92H181.2V-24.912a1.182,1.182,0,0,1,1.1-1.008h12.48a1.218,1.218,0,0,1,1.1,1.248v10.608Zm-4.272-2.3a21.881,21.881,0,0,1-3.888-5.712h-2.208a18.7,18.7,0,0,0,.672-2.832h-4.032a17.608,17.608,0,0,1-4.464,8.64h4.944c.768-1.152,1.44-2.4,2.112-3.6a27.83,27.83,0,0,0,1.92,3.5ZM202.8,2.448c-3.936-2.64-8.256-5.76-10.464-10.128H189.36c.144-.288.384-.912.576-1.44H202.32v-3.264H190.464c.1-.864.144-2.112.144-2.832h-4.32a13.591,13.591,0,0,1-.192,2.832H174.72V-9.12h10.7c-2.3,5.568-7.872,9.36-13.152,11.568h8.3a23.434,23.434,0,0,0,7.968-8.112,21.657,21.657,0,0,0,6.96,8.112ZM175.3-17.76v-3.984a34.8,34.8,0,0,1-4.656,2.3v-8.448H174.1V-31.2H170.64v-8.352h-4.272V-31.2H160.8v3.312h5.568v10.224a49.425,49.425,0,0,1-5.856,1.968v3.936c1.488-.48,4.416-1.488,5.856-2.016v12.24c0,.576-.384.864-.96.864h-4.032l1.392,3.12h3.84a4.4,4.4,0,0,0,2.88-.912,3.8,3.8,0,0,0,1.152-3.024V-15.6C171.7-16.032,173.952-17.088,175.3-17.76ZM189.264-32.5a15.3,15.3,0,0,1-1.92,3.36h-5.52c.768-1.056,1.728-2.64,2.5-3.984h4.512C189.216-33.12,189.36-32.832,189.264-32.5ZM250.032-1.44V-28.656a4.883,4.883,0,0,0-1.2-3.312,4.37,4.37,0,0,0-3.312-1.344H234.24c.528-1.776,1.2-4.272,1.536-6.144h-4.368c-1.392,6-3.264,11.664-6.96,16.7h5.184a44.121,44.121,0,0,0,3.456-7.1h11.28a1.281,1.281,0,0,1,1.3,1.248V-2.352A1.3,1.3,0,0,1,244.32-.864h-6.96l1.68,3.36h6.768A4.66,4.66,0,0,0,248.976,1.1,3.718,3.718,0,0,0,250.032-1.44Zm-8.256-8.448a39.077,39.077,0,0,1-6.432-11.952h-4.7A41.869,41.869,0,0,0,236.5-9.888Zm-14.448-2.88a39.864,39.864,0,0,1-2.976-8.832h-4.128c.384,1.776.912,3.84,1.392,5.472h-7.488l13.2-15.6h-5.472l-2.688,3.264h-5.184L223.3-39.456h-5.424L209.184-29.04a2.339,2.339,0,0,0-.288,2.256,2.435,2.435,0,0,0,2.3,1.584h5.136l-6.768,8.016a3.144,3.144,0,0,0-.672,2.736,2.425,2.425,0,0,0,2.5,1.68h8.784l1.68-2.736a23.918,23.918,0,0,0,1.008,2.736ZM227.52,2.5a54.657,54.657,0,0,1-2.256-13.248h-3.936A62.56,62.56,0,0,0,223.344,2.5Zm-6.816,0a70.055,70.055,0,0,1-1.3-13.248h-3.984a85.049,85.049,0,0,0,1.1,13.248Zm-6.528-13.248h-3.984A62.345,62.345,0,0,1,208.9,2.5h4.272A70.573,70.573,0,0,0,214.176-10.752Z" transform="translate(-3.264 39.6)" fill="#1b1c1e"/>
</svg>
