<svg xmlns="http://www.w3.org/2000/svg" width="185.616" height="42.192" viewBox="0 0 185.616 42.192">
  <path id="sec-title-QA" d="M44.448-22.848v-5.9a4.131,4.131,0,0,0-.96-2.736,3.581,3.581,0,0,0-2.832-1.248H35.424c.912-1.392,2.64-4.08,3.5-5.664H33.936a57.4,57.4,0,0,1-3.312,5.664H26.3v-6.816H21.792v6.816H17.424a56.7,56.7,0,0,1-3.6-5.664H9.12c.816,1.44,2.544,4.272,3.408,5.664H7.92a3.9,3.9,0,0,0-2.544.96A3.388,3.388,0,0,0,4.032-29.04v6.192H8.4v-5.28a1.357,1.357,0,0,1,1.2-1.344H38.688a1.165,1.165,0,0,1,1.2,1.056v5.568ZM41.76-4.08v-6.192a3.739,3.739,0,0,0-1.056-2.64,3.58,3.58,0,0,0-2.688-1.152H26.448V-17.04H34.8A3.047,3.047,0,0,0,37.3-18.1a3.51,3.51,0,0,0,.864-2.4v-2.592a3.845,3.845,0,0,0-.912-2.64A3.24,3.24,0,0,0,34.8-26.784H13.872a4.2,4.2,0,0,0-2.4.768,3.072,3.072,0,0,0-1.2,2.5v3.264A3.223,3.223,0,0,0,11.28-17.9a3.045,3.045,0,0,0,2.16.864h8.4v2.976H10.848A4.31,4.31,0,0,0,7.92-12.912a4.119,4.119,0,0,0-1.2,2.976V.384h4.416V-9.648a1.188,1.188,0,0,1,1.2-1.2h9.5V2.5h4.608V-10.848h9.744A1.167,1.167,0,0,1,37.344-9.7v5.568a1.058,1.058,0,0,1-1.1,1.1H30.384L32.3.24h5.04A4.505,4.505,0,0,0,40.7-1.1,4.412,4.412,0,0,0,41.76-4.08ZM33.792-21.12a1.011,1.011,0,0,1-1.056.912H15.36a.846.846,0,0,1-.768-.864v-1.68a.821.821,0,0,1,.864-.816H32.88a.953.953,0,0,1,.912.96ZM93.216-.912H80.688a.892.892,0,0,1-.864-.864V-9.7H85.1a4.556,4.556,0,0,0,3.36-1.3,4.4,4.4,0,0,0,1.152-3.12V-33.888a6.545,6.545,0,0,0-.768-3.5c-.672-1.056-1.872-1.584-3.744-1.584H59.184a5.013,5.013,0,0,0-3.408,1.1,4.381,4.381,0,0,0-1.248,3.36V-14.3a4.494,4.494,0,0,0,1.152,3.36A5.333,5.333,0,0,0,59.616-9.7h4.272a7.875,7.875,0,0,1-3.36,7.056C57.888-.576,53.808,1.248,50.4,2.64h8.88C64.9.432,68.688-4.32,68.4-9.7h6.912v7.44a5.032,5.032,0,0,0,1.152,3.7,4.428,4.428,0,0,0,3.408,1.152H91.68ZM85.1-30.624H58.992v-3.7a1.274,1.274,0,0,1,1.2-1.3H83.808a1.3,1.3,0,0,1,1.3,1.344Zm0,8.688H58.992v-5.28H85.1Zm0,7.584a1.274,1.274,0,0,1-1.3,1.2H60.432a1.333,1.333,0,0,1-1.44-1.344V-18.48H85.1ZM139.872-1.968V-34.56a4.861,4.861,0,0,0-.864-2.976,3.6,3.6,0,0,0-3.12-1.488H125.52a3.927,3.927,0,0,0-2.5.864,3.694,3.694,0,0,0-1.3,2.88v9.312A4.163,4.163,0,0,0,122.88-22.9a4.032,4.032,0,0,0,2.832,1.1H135.6V-2.16a1.152,1.152,0,0,1-1.152,1.3h-5.376l1.1,3.264h5.28a4.323,4.323,0,0,0,3.312-1.1A4.318,4.318,0,0,0,139.872-1.968Zm-8.928-4.848v-8.352a4.342,4.342,0,0,0-.96-2.88,4.361,4.361,0,0,0-3.456-1.392H113.52a4.608,4.608,0,0,0-2.784.912,3.656,3.656,0,0,0-1.392,3.024v8.832a4.054,4.054,0,0,0,1.008,2.784,3.756,3.756,0,0,0,2.88,1.248h12.912a4.979,4.979,0,0,0,3.744-1.248A3.959,3.959,0,0,0,130.944-6.816ZM118.368-26.064v-8.544a4.749,4.749,0,0,0-.96-3.024,3.917,3.917,0,0,0-3.12-1.392h-9.84a4.2,4.2,0,0,0-2.784,1.008,3.973,3.973,0,0,0-1.3,3.072V2.4h4.32V-21.792H113.9a4.452,4.452,0,0,0,3.5-1.3A4.356,4.356,0,0,0,118.368-26.064Zm17.232-6H126v-2.5a1.2,1.2,0,0,1,1.248-1.2H134.3a1.281,1.281,0,0,1,1.3,1.248Zm0,7.056h-8.352a1.172,1.172,0,0,1-1.248-1.2V-28.8h9.6Zm-21.552-7.056h-9.36v-2.5a1.16,1.16,0,0,1,1.2-1.2h7.056a1.284,1.284,0,0,1,1.1,1.2Zm0,5.808a1.162,1.162,0,0,1-1.152,1.248h-8.208V-28.8h9.36ZM126.624-7.248A1.264,1.264,0,0,1,125.376-5.9h-10.56a1.191,1.191,0,0,1-1.152-1.248V-15.12a1.29,1.29,0,0,1,1.248-1.1h10.464a1.2,1.2,0,0,1,1.248,1.2ZM188.448-35.52v-3.312h-20.3v3.312h8.448a28.287,28.287,0,0,1-.816,3.6h-2.112a3.811,3.811,0,0,0-2.448.96,3.5,3.5,0,0,0-1.3,2.592v14.016A3.429,3.429,0,0,0,170.88-12a3.449,3.449,0,0,0,2.5,1.2H183.6a3.746,3.746,0,0,0,2.688-1.248,3.573,3.573,0,0,0,.96-2.448v-13.3a3.862,3.862,0,0,0-1.152-2.88,4.611,4.611,0,0,0-3.264-1.248h-2.976c.288-1.152.624-2.592.816-3.6Zm.768,32.88a27.6,27.6,0,0,1-5.04-6.816H179.52a38.69,38.69,0,0,0,4.608,6.816ZM166.848-26.976v-7.632a4.149,4.149,0,0,0-1.1-2.88,4.469,4.469,0,0,0-3.36-1.44h-9.6a4.163,4.163,0,0,0-2.832,1.1,3.7,3.7,0,0,0-1.3,2.688v8.544a4.092,4.092,0,0,0,1.3,3.024,4.9,4.9,0,0,0,3.36,1.152h9.168a4.4,4.4,0,0,0,3.216-1.3A4.759,4.759,0,0,0,166.848-26.976ZM177.36-9.456h-4.7a26.668,26.668,0,0,1-6,6.816h5.568A32.573,32.573,0,0,0,177.36-9.456ZM189.648-.864h-25.68a12.13,12.13,0,0,1-3.7-.624v-6.72h7.056v-3.024h-7.056v-5.232h7.872V-19.68h-20.88v3.216H156.1V-3.888a13.82,13.82,0,0,1-2.832-3.6c.192-1.728.336-3.792.336-5.04h-3.792A54.462,54.462,0,0,1,147.024,2.4h4.368c.528-1.872,1.008-4.08,1.248-5.52,2.112,2.688,4.176,4.368,7.392,5.136a22.44,22.44,0,0,0,4.7.432h22.656Zm-6.624-25.152h-8.976V-27.84a1.032,1.032,0,0,1,.96-.96h6.96a1.176,1.176,0,0,1,1.056,1.056Zm0,6.144h-8.976v-3.12h8.976Zm0,4.752a1.159,1.159,0,0,1-1.1,1.152H175.2a1.137,1.137,0,0,1-1.152-1.152v-1.824h8.976ZM162.768-32.448H152.88V-34.7a1.12,1.12,0,0,1,1.152-1.056h7.488a1.216,1.216,0,0,1,1.248,1.056Zm0,5.568a1.2,1.2,0,0,1-1.3,1.152h-7.344a1.144,1.144,0,0,1-1.248-1.056v-2.592h9.888Z" transform="translate(-4.032 39.552)" fill="#1b1c1e"/>
</svg>
